<svg width="375" height="172" viewBox="0 0 375 172" fill="none" xmlns="http://www.w3.org/2000/svg">
<g clip-path="url(#clip0_1506_33)">
<rect width="375" height="172" fill="#0B0C12"/>
<path fill-rule="evenodd" clip-rule="evenodd" d="M-71.4826 215.677C-16.9356 344.323 221.041 419.809 283.143 315.529C345.245 211.249 188.108 192.325 132.56 84.5658C77.0134 -23.1932 33.8494 -90.4492 -46.4126 -65.9002C-126.675 -41.3502 -126.029 87.0298 -71.4826 215.677Z" fill="#474D59"/>
<path d="M-21.1651 221.127C32.0359 221.127 75.1638 177.979 75.1638 124.754C75.1638 71.5285 32.0359 28.3809 -21.1651 28.3809C-74.3662 28.3809 -117.494 71.5285 -117.494 124.754C-117.494 177.979 -74.3662 221.127 -21.1651 221.127Z" fill="#18A0FB"/>
<path fill-rule="evenodd" clip-rule="evenodd" d="M313.85 299.189C401.16 258.499 447.435 92.6639 374.103 52.3689C300.77 12.0759 291.516 120.834 218.618 161.712C145.72 202.589 100.426 233.957 119.27 288.685C138.115 343.413 226.54 339.879 313.85 299.189Z" fill="#989EA6"/>
<path d="M216.307 109.168L231.57 93.6187M279.843 117.059L261.848 101.947M248.331 137.794L238.391 159.087" stroke="#F5F7FA" stroke-width="5" stroke-linecap="round" stroke-linejoin="bevel"/>
</g>
<defs>
<clipPath id="clip0_1506_33">
<rect width="375" height="172" fill="white"/>
</clipPath>
</defs>
</svg>
