<svg width="274" height="568" viewBox="0 0 274 568" fill="none" xmlns="http://www.w3.org/2000/svg">
<g clip-path="url(#clip0_1506_22)">
<path d="M264 0H10C4.47715 0 0 4.47715 0 10V558C0 563.523 4.47715 568 10 568H264C269.523 568 274 563.523 274 558V10C274 4.47715 269.523 0 264 0Z" fill="#0B0C12"/>
<mask id="mask0_1506_22" style="mask-type:alpha" maskUnits="userSpaceOnUse" x="0" y="0" width="274" height="568">
<path d="M264 0H10C4.47715 0 0 4.47715 0 10V558C0 563.523 4.47715 568 10 568H264C269.523 568 274 563.523 274 558V10C274 4.47715 269.523 0 264 0Z" fill="white"/>
</mask>
<g mask="url(#mask0_1506_22)">
<path fill-rule="evenodd" clip-rule="evenodd" d="M-34.6914 543.101C3.24763 632.538 168.768 685.017 211.961 612.52C255.155 540.023 145.862 526.867 107.226 451.951C68.5906 377.035 38.5686 330.277 -17.2564 347.344C-73.0804 364.412 -72.6304 453.664 -34.6914 543.101Z" fill="#474D59"/>
<path fill-rule="evenodd" clip-rule="evenodd" d="M233.094 601.153C293.773 572.875 325.933 457.627 274.969 429.625C224.004 401.622 217.572 477.204 166.91 505.612C116.248 534.02 84.7703 555.819 97.8663 593.853C110.962 631.887 172.415 629.431 233.094 601.153Z" fill="#989EA6"/>
<path d="M165.305 469.097L175.912 458.291M209.461 474.581L196.955 464.078M187.56 488.991L180.652 503.789" stroke="#F5F7FA" stroke-width="5" stroke-linecap="round" stroke-linejoin="bevel"/>
<path d="M0.304688 546.891C37.3077 546.891 67.3047 516.894 67.3047 479.891C67.3047 442.888 37.3077 412.891 0.304688 412.891C-36.6983 412.891 -66.6953 442.888 -66.6953 479.891C-66.6953 516.894 -36.6983 546.891 0.304688 546.891Z" fill="#18A0FB"/>
</g>
</g>
<defs>
<clipPath id="clip0_1506_22">
<rect width="274" height="568" fill="white"/>
</clipPath>
</defs>
</svg>
