<svg width="40" height="40" viewBox="0 0 40 40" fill="none" xmlns="http://www.w3.org/2000/svg">
<g clip-path="url(#clip0_1506_50)">
<path d="M20 40C31.0457 40 40 31.0457 40 20C40 8.9543 31.0457 0 20 0C8.9543 0 0 8.9543 0 20C0 31.0457 8.9543 40 20 40Z" fill="#989EA6"/>
<path d="M24.995 18.0049H20.997V24.0029H18.997V18.0049H15C14.7348 18.0049 14.4804 18.1102 14.2929 18.2978C14.1054 18.4853 14 18.7397 14 19.0049V28.9999C14 29.2651 14.1054 29.5194 14.2929 29.707C14.4804 29.8945 14.7348 29.9999 15 29.9999H24.995C25.2602 29.9999 25.5146 29.8945 25.7021 29.707C25.8896 29.5194 25.995 29.2651 25.995 28.9999V19.0049C25.995 18.7397 25.8896 18.4853 25.7021 18.2978C25.5146 18.1102 25.2602 18.0049 24.995 18.0049ZM18.998 27.0009H16.998V25.0019H18.998V27.0019V27.0009ZM20.998 15.8259C21.6649 15.59 22.227 15.1259 22.5849 14.5157C22.9428 13.9055 23.0734 13.1884 22.9538 12.4912C22.8341 11.794 22.4718 11.1615 21.9309 10.7055C21.3901 10.2496 20.7054 9.99951 19.998 9.99951C19.2906 9.99951 18.6059 10.2496 18.0651 10.7055C17.5242 11.1615 17.1619 11.794 17.0422 12.4912C16.9226 13.1884 17.0532 13.9055 17.4111 14.5157C17.769 15.1259 18.3311 15.59 18.998 15.8259V18.0059H20.998V15.8259Z" fill="#F5F7FA"/>
</g>
<defs>
<clipPath id="clip0_1506_50">
<rect width="40" height="40" fill="white"/>
</clipPath>
</defs>
</svg>
