<svg width="40" height="40" viewBox="0 0 40 40" fill="none" xmlns="http://www.w3.org/2000/svg">
<g clip-path="url(#clip0_1506_56)">
<path d="M20 40C31.0457 40 40 31.0457 40 20C40 8.9543 31.0457 0 20 0C8.9543 0 0 8.9543 0 20C0 31.0457 8.9543 40 20 40Z" fill="#0B0C12"/>
<path d="M26.6664 13H13.3344C12.8966 12.9999 12.4631 13.086 12.0586 13.2534C11.6541 13.4209 11.2865 13.6663 10.9769 13.9759C10.6673 14.2854 10.4217 14.6528 10.2542 15.0573C10.0866 15.4617 10.0004 15.8952 10.0004 16.333V23.526C9.99027 24.2185 10.189 24.8981 10.5708 25.476C10.9525 26.0539 11.4994 26.5035 12.1404 26.766C13.3784 27.266 14.7964 26.948 15.7004 25.966L18.5204 23H21.4804L24.3004 25.966C24.7416 26.4462 25.3189 26.7801 25.9552 26.9231C26.5914 27.0661 27.2561 27.0113 27.8604 26.766C28.5013 26.5035 29.0483 26.0539 29.43 25.476C29.8117 24.8981 30.0105 24.2185 30.0004 23.526V16.333C30.0004 15.8952 29.9141 15.4617 29.7466 15.0573C29.579 14.6528 29.3334 14.2854 29.0238 13.9759C28.7142 13.6663 28.3467 13.4209 27.9422 13.2534C27.5377 13.086 27.1041 12.9999 26.6664 13ZM17.3334 19H16.0004V20.333C15.9937 20.5053 15.9205 20.6683 15.7963 20.7879C15.672 20.9074 15.5063 20.9742 15.3339 20.9742C15.1614 20.9742 14.9957 20.9074 14.8714 20.7879C14.7472 20.6683 14.674 20.5053 14.6674 20.333V19H13.3344C13.1575 19 12.9878 18.9297 12.8627 18.8046C12.7376 18.6796 12.6674 18.5099 12.6674 18.333C12.6674 18.1561 12.7376 17.9864 12.8627 17.8614C12.9878 17.7363 13.1575 17.666 13.3344 17.666H14.6674V16.333C14.6639 16.2433 14.6786 16.1538 14.7105 16.0699C14.7424 15.986 14.791 15.9094 14.8532 15.8448C14.9154 15.7801 14.9901 15.7286 15.0727 15.6935C15.1553 15.6583 15.2441 15.6402 15.3339 15.6402C15.4236 15.6402 15.5125 15.6583 15.5951 15.6935C15.6777 15.7286 15.7523 15.7801 15.8145 15.8448C15.8768 15.9094 15.9253 15.986 15.9572 16.0699C15.9892 16.1538 16.0038 16.2433 16.0004 16.333V17.666H17.3334C17.5103 17.666 17.6799 17.7363 17.805 17.8614C17.9301 17.9864 18.0004 18.1561 18.0004 18.333C18.0004 18.5099 17.9301 18.6796 17.805 18.8046C17.6799 18.9297 17.5103 19 17.3334 19ZM24.6664 21C24.3119 21.0069 23.9595 20.943 23.63 20.812C23.3005 20.6811 23.0004 20.4858 22.7472 20.2375C22.4941 19.9892 22.293 19.693 22.1557 19.366C22.0184 19.0391 21.9477 18.6881 21.9477 18.3335C21.9477 17.9789 22.0184 17.6279 22.1557 17.301C22.293 16.974 22.4941 16.6778 22.7472 16.4295C23.0004 16.1812 23.3005 15.9859 23.63 15.855C23.9595 15.724 24.3119 15.6601 24.6664 15.667C25.3646 15.6805 26.0297 15.9674 26.5187 16.466C27.0078 16.9646 27.2817 17.6351 27.2817 18.3335C27.2817 19.0319 27.0078 19.7024 26.5187 20.201C26.0297 20.6996 25.3646 20.9865 24.6664 21ZM26.0004 18.333C26.0004 18.6867 25.8599 19.0258 25.6098 19.2759C25.3597 19.526 25.0205 19.6665 24.6669 19.6665C24.3132 19.6665 23.974 19.526 23.7239 19.2759C23.4739 19.0258 23.3334 18.6867 23.3334 18.333C23.3334 17.9793 23.4739 17.6402 23.7239 17.3901C23.974 17.14 24.3132 16.9995 24.6669 16.9995C25.0205 16.9995 25.3597 17.14 25.6098 17.3901C25.8599 17.6402 26.0004 17.9793 26.0004 18.333Z" fill="#F5F7FA"/>
</g>
<defs>
<clipPath id="clip0_1506_56">
<rect width="40" height="40" fill="white"/>
</clipPath>
</defs>
</svg>
