<svg width="80" height="80" viewBox="0 0 80 80" fill="none" xmlns="http://www.w3.org/2000/svg">
<g clip-path="url(#clip0_1506_60)">
<path d="M40 80C62.0914 80 80 62.0914 80 40C80 17.9086 62.0914 0 40 0C17.9086 0 0 17.9086 0 40C0 62.0914 17.9086 80 40 80Z" fill="#989EA6"/>
<path d="M48.4645 79.167C49.2325 79.017 49.9945 78.846 50.7525 78.652C52.0375 78.2935 53.3037 77.871 54.5465 77.386C55.7919 76.904 57.0124 76.36 58.2035 75.756C62.9782 73.3237 67.2162 69.958 70.6665 65.858C74.1198 61.7595 76.7157 57.0098 78.3005 51.89C78.6385 50.773 78.9275 49.641 79.1675 48.499L55.3745 24.698C53.365 22.6783 50.9757 21.0762 48.3444 19.9838C45.713 18.8914 42.8916 18.3304 40.0425 18.333C37.1916 18.3304 34.3684 18.8914 31.7351 19.9837C29.1018 21.076 26.7104 22.6782 24.6985 24.698C16.2125 33.187 16.2125 46.903 24.6985 55.392L48.4645 79.167Z" fill="#7E838C"/>
<path d="M40.0035 18.333C42.848 18.3303 45.6651 18.8901 48.2925 19.98C50.92 21.07 53.3061 22.6686 55.3135 24.684C63.7845 33.155 63.7845 46.842 55.3135 55.314C46.8435 63.784 33.1575 63.784 24.6865 55.314C16.2165 46.842 16.2165 33.155 24.6865 24.684C26.6953 22.6686 29.0826 21.07 31.7112 19.9803C34.3398 18.8905 37.1579 18.3301 40.0035 18.333ZM49.8685 33.333C49.5525 33.361 49.2465 33.483 48.9965 33.677L36.8285 42.807L31.1875 37.165C29.9635 35.89 27.5575 38.297 28.8315 39.521L35.4945 46.184C36.0545 46.744 37.0335 46.814 37.6675 46.34L50.9935 36.345C52.1155 35.529 51.4235 33.352 50.0375 33.332C49.9809 33.3291 49.9241 33.3291 49.8675 33.332L49.8685 33.333Z" fill="#F5F7FA"/>
</g>
<defs>
<clipPath id="clip0_1506_60">
<rect width="80" height="80" fill="white"/>
</clipPath>
</defs>
</svg>
